<mxfile host="app.diagrams.net" modified="2023-01-30T02:46:51.472Z" agent="5.0 (Macintosh; Intel Mac OS X 10_15_7) AppleWebKit/537.36 (KHTML, like Gecko) Chrome/108.0.0.0 Safari/537.36" etag="a3MK221ODSCvUzNuQ9Th" version="20.8.13" type="github">
  <diagram name="第 1 页" id="RNK_plZOK7cDyFxFUuSj">
    <mxGraphModel dx="2305" dy="694" grid="0" gridSize="10" guides="1" tooltips="1" connect="1" arrows="1" fold="1" page="1" pageScale="1" pageWidth="827" pageHeight="1169" math="0" shadow="0">
      <root>
        <mxCell id="0" />
        <mxCell id="1" parent="0" />
        <mxCell id="LMjVr3jRKLbtkr2bQLFX-48" value="" style="whiteSpace=wrap;html=1;strokeColor=#CCCCCC;fillColor=#E6E6E6;" vertex="1" parent="1">
          <mxGeometry x="-536" y="341" width="528" height="110" as="geometry" />
        </mxCell>
        <mxCell id="LMjVr3jRKLbtkr2bQLFX-59" value="" style="whiteSpace=wrap;html=1;strokeColor=#CCCCCC;fillColor=#E6E6E6;" vertex="1" parent="1">
          <mxGeometry x="-533" y="458" width="525" height="240" as="geometry" />
        </mxCell>
        <mxCell id="LMjVr3jRKLbtkr2bQLFX-33" style="edgeStyle=orthogonalEdgeStyle;rounded=0;orthogonalLoop=1;jettySize=auto;html=1;exitX=1;exitY=0.25;exitDx=0;exitDy=0;entryX=0.14;entryY=0.65;entryDx=0;entryDy=0;entryPerimeter=0;" edge="1" parent="1" source="LMjVr3jRKLbtkr2bQLFX-1" target="LMjVr3jRKLbtkr2bQLFX-28">
          <mxGeometry relative="1" as="geometry">
            <Array as="points">
              <mxPoint x="-502" y="124" />
              <mxPoint x="-452" y="124" />
            </Array>
          </mxGeometry>
        </mxCell>
        <mxCell id="LMjVr3jRKLbtkr2bQLFX-35" value="任务执行" style="edgeLabel;html=1;align=center;verticalAlign=middle;resizable=0;points=[];" vertex="1" connectable="0" parent="LMjVr3jRKLbtkr2bQLFX-33">
          <mxGeometry x="-0.1637" y="-1" relative="1" as="geometry">
            <mxPoint as="offset" />
          </mxGeometry>
        </mxCell>
        <mxCell id="LMjVr3jRKLbtkr2bQLFX-1" value="" style="whiteSpace=wrap;html=1;strokeColor=#CCCCCC;fillColor=#E6E6E6;" vertex="1" parent="1">
          <mxGeometry x="-822" y="61" width="320" height="270" as="geometry" />
        </mxCell>
        <mxCell id="LMjVr3jRKLbtkr2bQLFX-2" value="iPaaS效能治理" style="text;html=1;strokeColor=none;fillColor=none;align=center;verticalAlign=middle;whiteSpace=wrap;rounded=0;fontStyle=1" vertex="1" parent="1">
          <mxGeometry x="-592" y="61" width="90" height="30" as="geometry" />
        </mxCell>
        <mxCell id="LMjVr3jRKLbtkr2bQLFX-3" value="" style="rounded=0;whiteSpace=wrap;html=1;strokeColor=#000000;fillColor=#E6E6E6;" vertex="1" parent="1">
          <mxGeometry x="-812" y="101" width="140" height="220" as="geometry" />
        </mxCell>
        <mxCell id="LMjVr3jRKLbtkr2bQLFX-4" value="任务管理" style="text;html=1;strokeColor=none;fillColor=none;align=center;verticalAlign=middle;whiteSpace=wrap;rounded=0;fontStyle=1" vertex="1" parent="1">
          <mxGeometry x="-772" y="101" width="60" height="30" as="geometry" />
        </mxCell>
        <mxCell id="LMjVr3jRKLbtkr2bQLFX-5" value="需求规划" style="rounded=0;whiteSpace=wrap;html=1;strokeColor=#FFCC99;fillColor=#E6E6E6;" vertex="1" parent="1">
          <mxGeometry x="-792" y="141" width="100" height="30" as="geometry" />
        </mxCell>
        <mxCell id="LMjVr3jRKLbtkr2bQLFX-6" value="分支跟踪" style="rounded=0;whiteSpace=wrap;html=1;strokeColor=#FFCC99;fillColor=#E6E6E6;" vertex="1" parent="1">
          <mxGeometry x="-792" y="196" width="100" height="30" as="geometry" />
        </mxCell>
        <mxCell id="LMjVr3jRKLbtkr2bQLFX-7" value="发布迭代" style="rounded=0;whiteSpace=wrap;html=1;strokeColor=#FFCC99;fillColor=#E6E6E6;" vertex="1" parent="1">
          <mxGeometry x="-792" y="251" width="100" height="30" as="geometry" />
        </mxCell>
        <mxCell id="LMjVr3jRKLbtkr2bQLFX-8" value="" style="rounded=0;whiteSpace=wrap;html=1;strokeColor=#000000;fillColor=#E6E6E6;" vertex="1" parent="1">
          <mxGeometry x="-652" y="101" width="110" height="110" as="geometry" />
        </mxCell>
        <mxCell id="LMjVr3jRKLbtkr2bQLFX-9" value="交付协作" style="text;html=1;strokeColor=none;fillColor=none;align=center;verticalAlign=middle;whiteSpace=wrap;rounded=0;fontStyle=1" vertex="1" parent="1">
          <mxGeometry x="-627" y="101" width="60" height="30" as="geometry" />
        </mxCell>
        <mxCell id="LMjVr3jRKLbtkr2bQLFX-10" value="任务分配" style="rounded=0;whiteSpace=wrap;html=1;strokeColor=#FFCC99;fillColor=#E6E6E6;" vertex="1" parent="1">
          <mxGeometry x="-647" y="131" width="100" height="30" as="geometry" />
        </mxCell>
        <mxCell id="LMjVr3jRKLbtkr2bQLFX-11" value="团队协作" style="rounded=0;whiteSpace=wrap;html=1;strokeColor=#FFCC99;fillColor=#E6E6E6;" vertex="1" parent="1">
          <mxGeometry x="-647" y="171" width="100" height="30" as="geometry" />
        </mxCell>
        <mxCell id="LMjVr3jRKLbtkr2bQLFX-14" value="" style="rounded=0;whiteSpace=wrap;html=1;strokeColor=#000000;fillColor=#E6E6E6;" vertex="1" parent="1">
          <mxGeometry x="-652" y="221" width="110" height="100" as="geometry" />
        </mxCell>
        <mxCell id="LMjVr3jRKLbtkr2bQLFX-15" value="质量管理" style="text;html=1;strokeColor=none;fillColor=none;align=center;verticalAlign=middle;whiteSpace=wrap;rounded=0;fontStyle=1" vertex="1" parent="1">
          <mxGeometry x="-627" y="216" width="60" height="30" as="geometry" />
        </mxCell>
        <mxCell id="LMjVr3jRKLbtkr2bQLFX-17" value="安全漏洞" style="rounded=0;whiteSpace=wrap;html=1;strokeColor=#FFCC99;fillColor=#E6E6E6;" vertex="1" parent="1">
          <mxGeometry x="-647" y="246" width="100" height="30" as="geometry" />
        </mxCell>
        <mxCell id="LMjVr3jRKLbtkr2bQLFX-18" value="接口治理" style="rounded=0;whiteSpace=wrap;html=1;strokeColor=#FFCC99;fillColor=#E6E6E6;" vertex="1" parent="1">
          <mxGeometry x="-647" y="281" width="100" height="30" as="geometry" />
        </mxCell>
        <mxCell id="LMjVr3jRKLbtkr2bQLFX-19" value="" style="whiteSpace=wrap;html=1;strokeColor=#CCCCCC;fillColor=#E6E6E6;" vertex="1" parent="1">
          <mxGeometry x="-342" y="51" width="320" height="240" as="geometry" />
        </mxCell>
        <mxCell id="LMjVr3jRKLbtkr2bQLFX-20" value="iPaaS运维平台" style="text;html=1;strokeColor=none;fillColor=none;align=center;verticalAlign=middle;whiteSpace=wrap;rounded=0;fontStyle=1" vertex="1" parent="1">
          <mxGeometry x="-112" y="51" width="90" height="30" as="geometry" />
        </mxCell>
        <mxCell id="LMjVr3jRKLbtkr2bQLFX-38" style="rounded=0;orthogonalLoop=1;jettySize=auto;html=1;exitX=0;exitY=0.5;exitDx=0;exitDy=0;exitPerimeter=0;endArrow=none;endFill=0;strokeColor=default;startArrow=classic;startFill=1;" edge="1" parent="1" source="LMjVr3jRKLbtkr2bQLFX-23" target="LMjVr3jRKLbtkr2bQLFX-28">
          <mxGeometry relative="1" as="geometry" />
        </mxCell>
        <mxCell id="LMjVr3jRKLbtkr2bQLFX-39" value="git push" style="edgeLabel;html=1;align=center;verticalAlign=middle;resizable=0;points=[];" vertex="1" connectable="0" parent="LMjVr3jRKLbtkr2bQLFX-38">
          <mxGeometry x="-0.3048" y="3" relative="1" as="geometry">
            <mxPoint as="offset" />
          </mxGeometry>
        </mxCell>
        <mxCell id="LMjVr3jRKLbtkr2bQLFX-75" style="edgeStyle=orthogonalEdgeStyle;rounded=0;orthogonalLoop=1;jettySize=auto;html=1;exitX=0;exitY=1;exitDx=0;exitDy=-15;exitPerimeter=0;strokeColor=default;startArrow=none;startFill=0;endArrow=classic;endFill=1;" edge="1" parent="1" source="LMjVr3jRKLbtkr2bQLFX-23" target="LMjVr3jRKLbtkr2bQLFX-50">
          <mxGeometry relative="1" as="geometry">
            <Array as="points">
              <mxPoint x="-242" y="161" />
              <mxPoint x="-473" y="161" />
            </Array>
          </mxGeometry>
        </mxCell>
        <mxCell id="LMjVr3jRKLbtkr2bQLFX-76" value="pull code" style="edgeLabel;html=1;align=center;verticalAlign=middle;resizable=0;points=[];" vertex="1" connectable="0" parent="LMjVr3jRKLbtkr2bQLFX-75">
          <mxGeometry x="0.5012" relative="1" as="geometry">
            <mxPoint as="offset" />
          </mxGeometry>
        </mxCell>
        <mxCell id="LMjVr3jRKLbtkr2bQLFX-23" value="" style="shape=cylinder3;whiteSpace=wrap;html=1;boundedLbl=1;backgroundOutline=1;size=15;strokeColor=#000000;fillColor=#E6E6E6;" vertex="1" parent="1">
          <mxGeometry x="-242" y="76" width="60" height="80" as="geometry" />
        </mxCell>
        <mxCell id="LMjVr3jRKLbtkr2bQLFX-28" value="" style="verticalLabelPosition=bottom;html=1;verticalAlign=top;align=center;strokeColor=none;fillColor=#00BEF2;shape=mxgraph.azure.user;" vertex="1" parent="1">
          <mxGeometry x="-402" y="91" width="47.5" height="50" as="geometry" />
        </mxCell>
        <mxCell id="LMjVr3jRKLbtkr2bQLFX-37" style="edgeStyle=none;rounded=0;orthogonalLoop=1;jettySize=auto;html=1;exitX=0;exitY=0.25;exitDx=0;exitDy=0;" edge="1" parent="1" source="LMjVr3jRKLbtkr2bQLFX-19" target="LMjVr3jRKLbtkr2bQLFX-19">
          <mxGeometry relative="1" as="geometry" />
        </mxCell>
        <mxCell id="LMjVr3jRKLbtkr2bQLFX-40" value="remote repository" style="text;html=1;strokeColor=none;fillColor=none;align=center;verticalAlign=middle;whiteSpace=wrap;rounded=0;" vertex="1" parent="1">
          <mxGeometry x="-242" y="161" width="60" height="30" as="geometry" />
        </mxCell>
        <mxCell id="LMjVr3jRKLbtkr2bQLFX-44" value="代码扫描" style="html=1;shadow=0;dashed=0;align=center;verticalAlign=middle;shape=mxgraph.arrows2.arrow;dy=0;dx=10;notch=0;strokeColor=#FFCC99;fillColor=#E6E6E6;" vertex="1" parent="1">
          <mxGeometry x="-131" y="188" width="100" height="30" as="geometry" />
        </mxCell>
        <mxCell id="LMjVr3jRKLbtkr2bQLFX-45" value="code review" style="html=1;shadow=0;dashed=0;align=center;verticalAlign=middle;shape=mxgraph.arrows2.arrow;dy=0;dx=10;notch=0;strokeColor=#FFCC99;fillColor=#E6E6E6;" vertex="1" parent="1">
          <mxGeometry x="-131" y="221" width="100" height="30" as="geometry" />
        </mxCell>
        <mxCell id="LMjVr3jRKLbtkr2bQLFX-49" value="&lt;b&gt;iPaaS流水线&lt;/b&gt;" style="text;html=1;strokeColor=none;fillColor=none;align=center;verticalAlign=middle;whiteSpace=wrap;rounded=0;" vertex="1" parent="1">
          <mxGeometry x="-94" y="341" width="90" height="30" as="geometry" />
        </mxCell>
        <mxCell id="LMjVr3jRKLbtkr2bQLFX-80" style="edgeStyle=orthogonalEdgeStyle;rounded=0;orthogonalLoop=1;jettySize=auto;html=1;exitX=0;exitY=0;exitDx=45;exitDy=30;exitPerimeter=0;strokeColor=default;startArrow=none;startFill=0;endArrow=classic;endFill=1;" edge="1" parent="1" source="LMjVr3jRKLbtkr2bQLFX-50" target="LMjVr3jRKLbtkr2bQLFX-61">
          <mxGeometry relative="1" as="geometry" />
        </mxCell>
        <mxCell id="LMjVr3jRKLbtkr2bQLFX-50" value="编译构建" style="html=1;shadow=0;dashed=0;align=center;verticalAlign=middle;shape=mxgraph.arrows2.arrow;dy=0;dx=10;notch=0;strokeColor=#FFCC99;fillColor=#E6E6E6;" vertex="1" parent="1">
          <mxGeometry x="-531" y="381" width="100" height="30" as="geometry" />
        </mxCell>
        <mxCell id="LMjVr3jRKLbtkr2bQLFX-55" value="测试验证" style="html=1;shadow=0;dashed=0;align=center;verticalAlign=middle;shape=mxgraph.arrows2.arrow;dy=0;dx=10;notch=10;strokeColor=#FFCC99;fillColor=#E6E6E6;" vertex="1" parent="1">
          <mxGeometry x="-431" y="381" width="100" height="30" as="geometry" />
        </mxCell>
        <mxCell id="LMjVr3jRKLbtkr2bQLFX-56" value="预发验证" style="html=1;shadow=0;dashed=0;align=center;verticalAlign=middle;shape=mxgraph.arrows2.arrow;dy=0;dx=10;notch=10;strokeColor=#FFCC99;fillColor=#E6E6E6;" vertex="1" parent="1">
          <mxGeometry x="-331" y="381" width="100" height="30" as="geometry" />
        </mxCell>
        <mxCell id="LMjVr3jRKLbtkr2bQLFX-57" value="上线审核" style="html=1;shadow=0;dashed=0;align=center;verticalAlign=middle;shape=mxgraph.arrows2.arrow;dy=0;dx=10;notch=10;strokeColor=#FFCC99;fillColor=#E6E6E6;" vertex="1" parent="1">
          <mxGeometry x="-231" y="381" width="100" height="30" as="geometry" />
        </mxCell>
        <mxCell id="LMjVr3jRKLbtkr2bQLFX-58" value="发布生产" style="html=1;shadow=0;dashed=0;align=center;verticalAlign=middle;shape=mxgraph.arrows2.arrow;dy=0;dx=10;notch=10;strokeColor=#FFCC99;fillColor=#E6E6E6;" vertex="1" parent="1">
          <mxGeometry x="-131" y="381" width="100" height="30" as="geometry" />
        </mxCell>
        <mxCell id="LMjVr3jRKLbtkr2bQLFX-60" value="IaaS&amp;amp;PaaS平台" style="text;html=1;strokeColor=none;fillColor=none;align=center;verticalAlign=middle;whiteSpace=wrap;rounded=0;fontStyle=1" vertex="1" parent="1">
          <mxGeometry x="-98" y="458" width="90" height="30" as="geometry" />
        </mxCell>
        <mxCell id="LMjVr3jRKLbtkr2bQLFX-65" style="edgeStyle=orthogonalEdgeStyle;rounded=0;orthogonalLoop=1;jettySize=auto;html=1;exitX=1;exitY=0.5;exitDx=0;exitDy=0;strokeColor=default;startArrow=none;startFill=0;endArrow=classic;endFill=1;" edge="1" parent="1" source="LMjVr3jRKLbtkr2bQLFX-61" target="LMjVr3jRKLbtkr2bQLFX-64">
          <mxGeometry relative="1" as="geometry" />
        </mxCell>
        <mxCell id="LMjVr3jRKLbtkr2bQLFX-66" value="pull image" style="edgeLabel;html=1;align=center;verticalAlign=middle;resizable=0;points=[];" vertex="1" connectable="0" parent="LMjVr3jRKLbtkr2bQLFX-65">
          <mxGeometry x="-0.1959" relative="1" as="geometry">
            <mxPoint as="offset" />
          </mxGeometry>
        </mxCell>
        <mxCell id="LMjVr3jRKLbtkr2bQLFX-61" value="" style="shape=datastore;whiteSpace=wrap;html=1;strokeColor=#000000;fillColor=#E6E6E6;" vertex="1" parent="1">
          <mxGeometry x="-511" y="488" width="50" height="60" as="geometry" />
        </mxCell>
        <mxCell id="LMjVr3jRKLbtkr2bQLFX-62" value="镜像仓库" style="text;html=1;strokeColor=none;fillColor=none;align=center;verticalAlign=middle;whiteSpace=wrap;rounded=0;" vertex="1" parent="1">
          <mxGeometry x="-511" y="551" width="50" height="20" as="geometry" />
        </mxCell>
        <mxCell id="LMjVr3jRKLbtkr2bQLFX-68" style="edgeStyle=orthogonalEdgeStyle;rounded=0;orthogonalLoop=1;jettySize=auto;html=1;exitX=1;exitY=0.5;exitDx=0;exitDy=0;entryX=0.011;entryY=0.468;entryDx=0;entryDy=0;entryPerimeter=0;strokeColor=default;startArrow=none;startFill=0;endArrow=classic;endFill=1;" edge="1" parent="1" source="LMjVr3jRKLbtkr2bQLFX-64" target="LMjVr3jRKLbtkr2bQLFX-67">
          <mxGeometry relative="1" as="geometry" />
        </mxCell>
        <mxCell id="LMjVr3jRKLbtkr2bQLFX-69" value="deploy container" style="edgeLabel;html=1;align=center;verticalAlign=middle;resizable=0;points=[];" vertex="1" connectable="0" parent="LMjVr3jRKLbtkr2bQLFX-68">
          <mxGeometry x="-0.2813" relative="1" as="geometry">
            <mxPoint x="17" as="offset" />
          </mxGeometry>
        </mxCell>
        <mxCell id="LMjVr3jRKLbtkr2bQLFX-64" value="Kubernetes" style="sketch=0;html=1;verticalAlign=top;labelPosition=center;verticalLabelPosition=bottom;align=center;spacingTop=-6;fontSize=11;fontStyle=1;fontColor=#999999;shape=image;aspect=fixed;imageAspect=0;image=data:image/svg+xml,PHN2ZyB4bWxucz0iaHR0cDovL3d3dy53My5vcmcvMjAwMC9zdmciIHhtbG5zOnY9Imh0dHBzOi8vdmVjdGEuaW8vbmFubyIgd2lkdGg9IjcwMi44NDYzMTM0NzY1NjI1IiBoZWlnaHQ9IjY4MS45NjcxMDIwNTA3ODEyIiB2aWV3Qm94PSIxMC4wMDEwMjYxNTM1NjQ0NTMgMTAuMDAwOTMzNjQ3MTU1NzYyIDcwMi44NDYzMTM0NzY1NjI1IDY4MS45NjcxMDIwNTA3ODEyIj4mI3hhOwk8c3R5bGUgdHlwZT0idGV4dC9jc3MiPiYjeGE7CS5zdDB7ZmlsbDojMzI2Y2U1O30mI3hhOwkuc3Qxe2ZpbGw6I2ZmZjt9JiN4YTsJPC9zdHlsZT4mI3hhOwk8cGF0aCBjbGFzcz0ic3QwIiBkPSJNMzU4Ljk4NyAxMC4wNmMtNi4yMTMuMzEzLTEyLjMwMSAxLjg1NC0xNy45MDYgNC41MzFMOTYuNzM3IDEzMS4zNDJjLTEyLjgxMSA2LjExOC0yMi4xMTYgMTcuNjg5LTI1LjI4MSAzMS40MzhsLTYwLjI4MSAyNjIuMjVjLTIuODEyIDEyLjIwNy0uNTI0IDI1LjAyNCA2LjM0NCAzNS41MzFhNDYuMzUgNDYuMzUgMCAwIDAgMi42NTYgMy42ODhsMTY5LjEyNSAyMTAuMjgxYzguODY4IDExLjAyMiAyMi4zMTMgMTcuNDQgMzYuNTMxIDE3LjQzOGwyNzEuMjE5LS4wNjJjMTQuMjEyLjAxIDI3LjY1Ny02LjM5NiAzNi41MzEtMTcuNDA2bDE2OS4wNjMtMjEwLjMxM2M4Ljg3My0xMS4wMjggMTIuMTk3LTI1LjQ2NCA5LjAzMS0zOS4yMTlsLTYwLjM3NS0yNjIuMjVjLTMuMTY1LTEzLjc0OC0xMi40Ny0yNS4zMTktMjUuMjgxLTMxLjQzN0wzODEuNjQzIDE0LjU5MmMtNy4wNS0zLjM2OC0xNC44NDEtNC45MjYtMjIuNjU2LTQuNTMxeiIvPiYjeGE7CTxwYXRoIGNsYXNzPSJzdDEgc3QyIiBkPSJNMzYxLjQwOCA5OS4zMDhjLTguMDc3LjAwMS0xNC42MjYgNy4yNzYtMTQuNjI1IDE2LjI1IDAgLjEzOC4wMjguMjY5LjAzMS40MDYtLjAxMiAxLjIxOS0uMDcxIDIuNjg4LS4wMzEgMy43NS4xOTMgNS4xNzYgMS4zMjEgOS4xMzcgMiAxMy45MDYgMS4yMyAxMC4yMDcgMi4yNjEgMTguNjY3IDEuNjI1IDI2LjUzMS0uNjE5IDIuOTY1LTIuODAzIDUuNjc3LTQuNzUgNy41NjNsLS4zNDQgNi4xODhjLTguNzc3LjcyNy0xNy42MTIgMi4wNTktMjYuNDM3IDQuMDYzLTM3Ljk3NSA4LjYyMi03MC42NyAyOC4xODMtOTUuNTYyIDU0LjU5NC0xLjYxNS0xLjEwMi00LjQ0MS0zLjEyOS01LjI4MS0zLjc1LTIuNjExLjM1My01LjI1IDEuMTU4LTguNjg3LS44NDQtNi41NDUtNC40MDYtMTIuNTA2LTEwLjQ4Ny0xOS43MTktMTcuODEyLTMuMzA1LTMuNTA0LTUuNjk4LTYuODQxLTkuNjI1LTEwLjIxOS0uODkyLS43NjctMi4yNTMtMS44MDUtMy4yNS0yLjU5NC0zLjA3LTIuNDQ4LTYuNjkxLTMuNzI0LTEwLjE4Ny0zLjg0NC00LjQ5Ni0uMTU0LTguODI0IDEuNjA0LTExLjY1NiA1LjE1Ni01LjAzNSA2LjMxNS0zLjQyMyAxNS45NjggMy41OTQgMjEuNTYzLjA3MS4wNTcuMTQ3LjEwMS4yMTkuMTU2Ljk2NC43ODIgMi4xNDUgMS43ODMgMy4wMzEgMi40MzggNC4xNjcgMy4wNzcgNy45NzMgNC42NTEgMTIuMTI1IDcuMDk0IDguNzQ3IDUuNDAyIDE1Ljk5OCA5Ljg4MSAyMS43NSAxNS4yODEgMi4yNDYgMi4zOTQgMi42MzkgNi42MTMgMi45MzggOC40MzhsNC42ODggNC4xODhjLTI1LjA5MyAzNy43NjQtMzYuNzA3IDg0LjQwOS0yOS44NDQgMTMxLjkzOGwtNi4xMjUgMS43ODFjLTEuNjE0IDIuMDg1LTMuODk1IDUuMzY1LTYuMjgxIDYuMzQ0LTcuNTI1IDIuMzctMTUuOTk0IDMuMjQxLTI2LjIxOSA0LjMxMy00LjguMzk5LTguOTQyLjE2MS0xNC4wMzEgMS4xMjUtMS4xMi4yMTItMi42ODEuNjE5LTMuOTA2LjkwNi0uMDQzLjAwOS0uMDgyLjAyMi0uMTI1LjAzMS0uMDY3LjAxNS0uMTU1LjA0OC0uMjE5LjA2My04LjYyIDIuMDgzLTE0LjE1OCAxMC4wMDYtMTIuMzc1IDE3LjgxM3MxMC4yMDMgMTIuNTU3IDE4Ljg3NSAxMC42ODhjLjA2My0uMDE0LjE1NC0uMDE3LjIxOS0uMDMxLjA5OC0uMDIyLjE4NC0uMDcuMjgxLS4wOTQgMS4yMDktLjI2NSAyLjcyNC0uNTYxIDMuNzgxLS44NDQgNS4wMDMtMS4zNCA4LjYyNy0zLjMwOCAxMy4xMjUtNS4wMzEgOS42NzctMy40NzEgMTcuNjkyLTYuMzcgMjUuNS03LjUgMy4yNjEtLjI1NSA2LjY5NyAyLjAxMiA4LjQwNiAyLjk2OWw2LjM3NS0xLjA5NGMxNC42NyA0NS40ODMgNDUuNDE0IDgyLjI0NSA4NC4zNDQgMTA1LjMxMmwtMi42NTYgNi4zNzVjLjk1NyAyLjQ3NSAyLjAxMyA1LjgyNSAxLjMgOC4yNjktMi44MzkgNy4zNjEtNy43MDEgMTUuMTMxLTEzLjIzOCAyMy43OTMtMi42ODEgNC4wMDItNS40MjUgNy4xMDgtNy44NDQgMTEuNjg4LS41NzkgMS4wOTYtMS4zMTYgMi43NzktMS44NzUgMy45MzgtMy43NTkgOC4wNDItMS4wMDIgMTcuMzA1IDYuMjE5IDIwLjc4MSA3LjI2NiAzLjQ5OCAxNi4yODQtLjE5MSAyMC4xODctOC4yNS4wMDYtLjAxMS4wMjYtLjAyLjAzMS0uMDMxcy0uMDA0LS4wMjMgMC0uMDMxYy41NTYtMS4xNDMgMS4zNDQtMi42NDQgMS44MTMtMy43MTkgMi4wNzItNC43NDcgMi43NjItOC44MTUgNC4yMTktMTMuNDA2IDMuODctOS43MiA1Ljk5Ni0xOS45MTkgMTEuMzIzLTI2LjI3NCAxLjQ1OS0xLjc0IDMuODM3LTIuNDA5IDYuMzAyLTMuMDdsMy4zMTMtNmMzMy45MzggMTMuMDI3IDcxLjkyNyAxNi41MjIgMTA5Ljg3NSA3LjkwNmExODkuNzcgMTg5Ljc3IDAgMCAwIDI1LjA5NC03LjU2MmwzLjEyNSA1LjYyNWMyLjUwNi44MTUgNS4yNCAxLjIzNiA3LjQ2OSA0LjUzMSAzLjk4NSA2LjgwOSA2LjcxMSAxNC44NjQgMTAuMDMxIDI0LjU5NCAxLjQ1NyA0LjU5MSAyLjE3OCA4LjY1OSA0LjI1IDEzLjQwNi40NzIgMS4wODIgMS4yNTYgMi42MDUgMS44MTMgMy43NSAzLjg5NSA4LjA4NSAxMi45NDIgMTEuNzg3IDIwLjIxOSA4LjI4MSA3LjIxOS0zLjQ3OCA5Ljk4LTEyLjc0IDYuMjE5LTIwLjc4MWwtMS45MDYtMy45MzdjLTIuNDE5LTQuNTgtNS4xNjMtNy42NTQtNy44NDQtMTEuNjU2LTUuNTM3LTguNjYyLTEwLjEzLTE1Ljg1OC0xMi45NjktMjMuMjE5LTEuMTg3LTMuNzk3LjItNi4xNTggMS4xMjUtOC42MjUtLjU1NC0uNjM1LTEuNzM5LTQuMjItMi40MzctNS45MDYgNDAuNDU3LTIzLjg4OCA3MC4yOTktNjIuMDIxIDg0LjMxMy0xMDYuMDYyIDEuODkyLjI5NyA1LjE4Mi44NzkgNi4yNSAxLjA5NCAyLjItMS40NTEgNC4yMjItMy4zNDQgOC4xODgtMy4wMzEgNy44MDggMS4xMjkgMTUuODIzIDQuMDMgMjUuNSA3LjUgNC40OTggMS43MjMgOC4xMjIgMy43MjMgMTMuMTI1IDUuMDYzIDEuMDU3LjI4MyAyLjU3Mi41NDcgMy43ODEuODEzLjA5Ny4wMjQuMTgzLjA3MS4yODEuMDk0LjA2NS4wMTUuMTU2LjAxNy4yMTkuMDMxIDguNjcyIDEuODY3IDE3LjA5NC0yLjg3OSAxOC44NzUtMTAuNjg3cy0zLjc1NC0xNS43MzItMTIuMzc1LTE3LjgxMmMtMS4yNTQtLjI4NS0zLjAzMi0uNzY5LTQuMjUtMS01LjA4OS0uOTY0LTkuMjMxLS43MjYtMTQuMDMxLTEuMTI1LTEwLjIyNS0xLjA3MS0xOC42OTMtMS45NDMtMjYuMjE5LTQuMzEyLTMuMDY4LTEuMTktNS4yNTEtNC44NDEtNi4zMTMtNi4zNDRsLTUuOTA2LTEuNzE5YzMuMDYyLTIyLjE1NCAyLjIzNy00NS4yMTEtMy4wNjItNjguMjgxLTUuMzQ4LTIzLjI4NS0xNC44LTQ0LjU4MS0yNy40MDYtNjMuMzQ0bDUuMTg4LTQuNjU2Yy4yMzctMi42MjQuMDMzLTUuMzc2IDIuNzUtOC4yODEgNS43NTEtNS40MDEgMTMuMDAzLTkuODc5IDIxLjc1LTE1LjI4MSA0LjE1Mi0yLjQ0MyA3Ljk5LTQuMDE3IDEyLjE1Ni03LjA5NC45NDItLjY5NiAyLjIyOS0xLjc5OCAzLjIxOS0yLjU5NCA3LjAxNS01LjU5NiA4LjYzMS0xNS4yNDggMy41OTQtMjEuNTYycy0xNC43OTctNi45MDktMjEuODEyLTEuMzEyYy0uOTk5Ljc5MS0yLjM1NCAxLjgyMy0zLjI1IDIuNTk0LTMuOTI3IDMuMzc4LTYuMzUxIDYuNzE0LTkuNjU2IDEwLjIxOS03LjIxMiA3LjMyNi0xMy4xNzQgMTMuNDM4LTE5LjcxOSAxNy44NDQtMi44MzYgMS42NTEtNi45OSAxLjA4LTguODc1Ljk2OWwtNS41NjIgMy45NjljLTMxLjcxOS0zMy4yNjEtNzQuOTA1LTU0LjUyNS0xMjEuNDA2LTU4LjY1NmwtLjM0NC02LjUzMWMtMS45MDQtMS44MjItNC4yMDMtMy4zNzctNC43ODEtNy4zMTItLjYzNi03Ljg2NC40MjYtMTYuMzI1IDEuNjU2LTI2LjUzMS42NzktNC43NjkgMS44MDctOC43MyAyLTEzLjkwNi4wNDQtMS4xNzctLjAyNi0yLjg4NC0uMDMxLTQuMTU2LS4wMDEtOC45NzQtNi41NDgtMTYuMjUxLTE0LjYyNS0xNi4yNXptLTE4LjMxMiAxMTMuNDM4bC00LjM0NCA3Ni43MTktLjMxMi4xNTZjLS4yOTEgNi44NjMtNS45NCAxMi4zNDQtMTIuODc1IDEyLjM0NGExMi44MiAxMi44MiAwIDAgMS03LjU5NC0yLjQ2OWwtLjEyNS4wNjMtNjIuOTA2LTQ0LjU5NGMxOS4zMzQtMTkuMDExIDQ0LjA2My0zMy4wNiA3Mi41NjItMzkuNTMxIDUuMjA2LTEuMTgyIDEwLjQxLTIuMDU5IDE1LjU5NC0yLjY4N3ptMzYuNjU2IDBjMzMuMjczIDQuMDkyIDY0LjA0NSAxOS4xNTkgODcuNjI1IDQyLjI1bC02Mi41IDQ0LjMxMy0uMjE5LS4wOTRhMTIuOTEgMTIuOTEgMCAwIDEtMTcuNjg3LTIuMzc1Yy0xLjc3MS0yLjIyMS0yLjcwMS00LjgzMi0yLjgxMi03LjQ2OWwtLjA2Mi0uMDMxek0yMzIuMTI2IDI4My42Mmw1Ny40MzcgNTEuMzc1LS4wNjIuMzEzYTEyLjg4IDEyLjg4IDAgMCAxIDEuNjI1IDE3Ljc1IDEyLjg5IDEyLjg5IDAgMCAxLTYuNjg3IDQuNDA2bC0uMDYyLjI1LTczLjYyNSAyMS4yNWMtMy43NDctMzQuMjY1IDQuMzI5LTY3LjU3NCAyMS4zNzUtOTUuMzQ0em0yNTguMTU2LjAzMWM4LjUzNCAxMy44MzMgMTQuOTk3IDI5LjI4MiAxOC44NDQgNDYuMDMxIDMuODAxIDE2LjU0OCA0Ljc1NSAzMy4wNjcgMy4xODggNDkuMDMxbC03NC0yMS4zMTItLjA2Mi0uMzEyYy02LjYyNy0xLjgxMS0xMC42OTktOC41NTItOS4xNTYtMTUuMzEyLjYzMi0yLjc3IDIuMTAyLTUuMTEzIDQuMDk0LTYuODQ0bC0uMDMxLS4xNTYgNTcuMTI1LTUxLjEyNXptLTE0MC42NTYgNTUuMzEzaDIzLjUzMWwxNC42MjUgMTguMjgxLTUuMjUgMjIuODEzLTIxLjEyNSAxMC4xNTYtMjEuMTg3LTEwLjE4Ny01LjI1LTIyLjgxMnptNzUuNDM4IDYyLjU2M2ExMi44MyAxMi44MyAwIDAgMSAyLjk2OS4yMTlsLjEyNS0uMTU2IDc2LjE1NiAxMi44NzVjLTExLjE0NiAzMS4zMTMtMzIuNDczIDU4LjQ0LTYwLjk2OSA3Ni41OTRsLTI5LjU2Mi03MS40MDYuMDk0LS4xMjVjLTIuNzE2LTYuMzEuMDAyLTEzLjcxIDYuMjUtMTYuNzE5IDEuNi0uNzcgMy4yNzEtMS4xOTcgNC45MzgtMS4yODF6bS0xMjcuOTA2LjMxM2ExMi45IDEyLjkgMCAwIDEgMTIuMzc1IDEwLjAzMSAxMi43NyAxMi43NyAwIDAgMS0uNzE5IDcuOTM4bC4yMTkuMjgxLTI5LjI1IDcwLjY4OGMtMjcuMzQ3LTE3LjU0OS00OS4xMjktNDMuODI0LTYwLjc4MS03Ni4wNjJsNzUuNS0xMi44MTIuMTI1LjE1NmMuODQ1LS4xNTUgMS43MDEtLjIzIDIuNTMxLS4yMTl6bTYzLjc4MSAzMC45NjljMi4wMjQtLjA3NCA0LjA3OS4zNDEgNi4wMzEgMS4yODEgMi41NiAxLjIzMyA0LjUzNyAzLjE3MyA1Ljc4MSA1LjVoLjI4MWwzNy4yMTkgNjcuMjVjLTQuODMgMS42MTktOS43OTYgMy4wMDMtMTQuODc1IDQuMTU2LTI4LjQ2NSA2LjQ2My01Ni44MzkgNC41MDUtODIuNTMxLTQuMjVsMzcuMTI1LTY3LjEyNWguMDYzYTEyLjkxIDEyLjkxIDAgMCAxIDEwLjkwNi02LjgxMnoiIHN0cm9rZT0ibm9uZSIgc3Ryb2tlLXdpZHRoPSIuMjUiLz4mI3hhOzwvc3ZnPg==;strokeColor=#000000;fillColor=#E6E6E6;" vertex="1" parent="1">
          <mxGeometry x="-314.5" y="496" width="52.5" height="50" as="geometry" />
        </mxCell>
        <mxCell id="LMjVr3jRKLbtkr2bQLFX-67" value="" style="sketch=0;aspect=fixed;html=1;points=[];align=center;image;fontSize=12;image=img/lib/mscae/Docker.svg;strokeColor=#000000;fillColor=#E6E6E6;" vertex="1" parent="1">
          <mxGeometry x="-136.14999999999998" y="495" width="68.3" height="56" as="geometry" />
        </mxCell>
        <mxCell id="LMjVr3jRKLbtkr2bQLFX-71" value="&lt;b&gt;测试环境&lt;/b&gt;" style="whiteSpace=wrap;html=1;aspect=fixed;strokeColor=#000000;fillColor=#B3B3B3;" vertex="1" parent="1">
          <mxGeometry x="-431" y="618" width="67.5" height="67.5" as="geometry" />
        </mxCell>
        <mxCell id="LMjVr3jRKLbtkr2bQLFX-72" value="预发环境" style="whiteSpace=wrap;html=1;aspect=fixed;strokeColor=#000000;fillColor=#B3B3B3;fontStyle=1" vertex="1" parent="1">
          <mxGeometry x="-339" y="618" width="65" height="65" as="geometry" />
        </mxCell>
        <mxCell id="LMjVr3jRKLbtkr2bQLFX-73" value="生产环境" style="whiteSpace=wrap;html=1;aspect=fixed;strokeColor=#000000;fillColor=#B3B3B3;fontStyle=1" vertex="1" parent="1">
          <mxGeometry x="-251.99999999999997" y="618" width="65" height="65" as="geometry" />
        </mxCell>
        <mxCell id="LMjVr3jRKLbtkr2bQLFX-81" value="服务治理" style="html=1;shadow=0;dashed=0;align=center;verticalAlign=middle;shape=mxgraph.arrows2.arrow;dy=0;dx=10;notch=0;strokeColor=#FFCC99;fillColor=#E6E6E6;" vertex="1" parent="1">
          <mxGeometry x="-131" y="256" width="100" height="30" as="geometry" />
        </mxCell>
      </root>
    </mxGraphModel>
  </diagram>
</mxfile>
